:FULLY-SPECIFIED
:DEGREES
8
root -0.567874014377594 -0.567874014377594 -0.567874014377594 -0.5678755879732001 -0.5678755879732001 -0.5678755879732001
lhipjoint -9.671654586443837e-08 -1.5341245206083327e-07 1.0672170578144923e-06
lfemur -4.473309026607968 -3.8432505426573256 -14.50133684384686
ltibia 23.743036998453917 -1.8140711423390125e-06 1.1989233691740225e-06
lfoot -19.773356666051892 -7.961636740841838e-07 10.844157302766783
ltoes -54.821048297530375 -1.8139142010488103e-06 1.2319203263278965e-06
rhipjoint 1.1005675908711953e-07 6.870210827458292e-07 -1.494104084495789e-06
rfemur 2.0345366226020243 7.961392293745569 13.862646708332614
rtibia 11.254281134122076 8.567156338875102e-07 -1.5303285158737873e-06
rfoot -22.553045582761154 1.369464812971846e-06 -13.611014001572881
rtoes -7.607957324954089 2.493335030327814e-07 -9.379802817762752e-07
lowerback 14.00726742627117 1.2429578251589204 -0.047128188546222284
upperback -3.914339151538818 2.10424489294094 1.292914148913511
thorax -11.803684475484976 1.0668210135643375 0.9360778526370707
lowerneck -11.457395592112624 -2.029057957114028 -1.9248847656666397
upperneck 23.5797988923852 -3.0151462414105206 2.3060364286666197
head 9.370881229926802 -1.331763944747426 0.7745436119620046
lclavicle -1.4085775951116125e-07 5.4855408257763046e-08 -1.0938974842598547e-06
lhumerus -6.636014575872105 -4.194706037249971 105.0628440773499
lradius 37.77791290312393 -6.303653787606081e-07 3.0161392404265665e-06
lwrist -2.1797847542766622e-07 -15.156700324898752 5.25589778055434e-08
lhand -4.562975323145072 2.6246558075710764e-07 -26.656099019086014
lfingers 7.125022823272814 9.845282338726802e-08 3.18924141240953e-07
lthumb 21.213298854421275 -1.2803152392500461e-07 2.20318914769186
rclavicle 1.398304276268298e-07 4.3880174074018323e-07 -1.3740421654916584e-06
rhumerus -13.192806641334878 1.7452891035876799 -90.0078094106995
rradius 47.42699969077639 -3.0480148103330686e-06 -4.424353285415869e-06
rwrist 3.1366640446368183e-07 34.86627839202836 7.011774517442114e-07
rhand -6.972260092956778 2.0321462048512455e-07 -36.68780446630613
rfingers 7.125022396385991 5.1024341088409163e-08 -3.1892353057445414e-07
rthumb 18.897492480477187 1.5447771905696147e-06 -65.78980959509936
9
root -0.567874014377594 -0.567874014377594 -0.567874014377594 -0.5678755879732001 -0.5678755879732001 -0.5678755879732001
lhipjoint -9.671654586443837e-08 -1.5341245206083327e-07 1.0672170578144923e-06
lfemur -5.340947103101041 -3.3011800496986683 -14.558749706462693
ltibia 24.549540613007146 -1.4748919057757524e-06 -1.396396732236981e-06
lfoot -18.78077137775084 1.1637862294972104e-06 9.637289343408565
ltoes -54.286138617586246 -5.546309775742219e-07 5.49068569102904e-07
rhipjoint 1.1005675908711953e-07 6.870210827458292e-07 -1.494104084495789e-06
rfemur 1.0084511774127605 8.163825440366407 13.374995107255797
rtibia 13.251989376719392 5.381169778904394e-07 -1.5391181441248552e-06
rfoot -23.140240360801734 1.2436220195564373e-06 -14.188013868503573
rtoes -8.771287097221709 1.8845976269566578e-06 -8.10609295447517e-07
lowerback 14.90479441057222 1.2172354394663583 0.11971968917411573
upperback -3.7890743359344303 2.1558804827360016 1.4394079395102388
thorax -12.102284978072301 1.0918193992048784 0.9788621575980305
lowerneck -11.457395592112624 -2.029057957114028 -1.9248847656666397
upperneck 23.5797988923852 -3.0151462414105206 2.3060364286666197
head 9.370881229926802 -1.331763944747426 0.7745436119620046
lclavicle -1.4085775951116125e-07 5.4855408257763046e-08 -1.0938974842598547e-06
lhumerus 5.031514347376899 -1.2434674213040269 109.53392688917526
lradius 35.04490491429712 -2.2011978768362715e-06 1.6392617503807892e-06
lwrist -2.8713391197766375e-07 -19.432535349110136 6.923421252834802e-08
lhand -4.562975323145072 2.6246558075710764e-07 -26.656099019086014
lfingers 7.125022823272814 9.845282338726802e-08 3.18924141240953e-07
lthumb 21.213298854421275 -1.2803152392500461e-07 2.20318914769186
rclavicle 1.398304276268298e-07 4.3880174074018323e-07 -1.3740421654916584e-06
rhumerus -0.11624559082602544 0.4940138155669765 -87.19929709569278
rradius 45.554482839249886 -3.917052676389692e-06 -4.353536734211274e-06
rwrist 3.5014131088395487e-07 37.463912031505515 7.827134900028363e-07
rhand -6.972260092956778 2.0321462048512455e-07 -36.68780446630613
rfingers 7.125022396385991 5.1024341088409163e-08 -3.1892353057445414e-07
rthumb 18.897492480477187 1.5447771905696147e-06 -65.78980959509936
10
root -0.567874014377594 -0.567874014377594 -0.567874014377594 -0.5678755879732001 -0.5678755879732001 -0.5678755879732001
lhipjoint -9.671654586443837e-08 -1.5341245206083327e-07 1.0672170578144923e-06
lfemur -5.614455198225032 -2.78097960901898 -14.920942685317423
ltibia 25.065839735010286 -1.1278079984959948e-06 4.776500025082018e-07
lfoot -17.931913760154362 4.3812288314897164e-07 8.68388714282858
ltoes -53.54124843198841 -1.5383864638814937e-07 1.3760254067243945e-06
rhipjoint 1.1005675908711953e-07 6.870210827458292e-07 -1.494104084495789e-06
rfemur 0.8286669380796848 8.745853180299873 12.568214016267538
rtibia 14.147346922185315 9.891445672706687e-07 -1.4733359275367054e-06
rfoot -23.344189809418314 -6.243054806482343e-08 -15.185767902459034
rtoes -10.169181787286844 8.846826328681807e-07 -1.1905126594854853e-06
lowerback 15.680620230468335 1.224694006040012 -0.1726806825137037
upperback -3.588458019632816 2.099395458630231 1.553827481929704
thorax -12.23383612903404 1.091655474664798 1.2782565629546636
lowerneck -11.457395592112624 -2.029057957114028 -1.9248847656666397
upperneck 23.5797988923852 -3.0151462414105206 2.3060364286666197
head 9.370881229926802 -1.331763944747426 0.7745436119620046
lclavicle -1.4085775951116125e-07 5.4855408257763046e-08 -1.0938974842598547e-06
lhumerus 17.503286946337504 2.7957151018230477 113.24263764622215
lradius 30.496859530904047 -3.468825908906397e-06 2.0727091672591345e-06
lwrist -3.553942895514226e-07 -23.321332581360867 8.569311228282887e-08
lhand -4.562975323145072 2.6246558075710764e-07 -26.656099019086014
lfingers 7.125022823272814 9.845282338726802e-08 3.18924141240953e-07
lthumb 21.213298854421275 -1.2803152392500461e-07 2.20318914769186
rclavicle 1.398304276268298e-07 4.3880174074018323e-07 -1.3740421654916584e-06
rhumerus 13.644262508678857 -0.5925938291360647 -82.80353761003431
rradius 41.78116190774927 -1.6927797481172155e-07 -2.987578978942272e-06
rwrist 3.476304029073454e-07 37.29288067959381 7.77100752434239e-07
rhand -6.972260092956778 2.0321462048512455e-07 -36.68780446630613
rfingers 7.125022396385991 5.1024341088409163e-08 -3.1892353057445414e-07
rthumb 18.897492480477187 1.5447771905696147e-06 -65.78980959509936
11
root -0.567874014377594 -0.567874014377594 -0.567874014377594 -0.5678755879732001 -0.5678755879732001 -0.5678755879732001
lhipjoint -9.671654586443837e-08 -1.5341245206083327e-07 1.0672170578144923e-06
lfemur -5.218701231109799 -2.4085153063130216 -15.529307634690458
ltibia 25.15278292050267 -1.9583679720161466e-06 2.0866010158857687e-06
lfoot -17.335773141848357 1.3639671860382801e-06 8.170068233267799
ltoes -52.47913352548392 -1.9021435003568569e-06 4.958184504039693e-08
rhipjoint 1.1005675908711953e-07 6.870210827458292e-07 -1.494104084495789e-06
rfemur 1.4592979839818447 9.565556989197798 11.4733901876015
rtibia 13.920513778528253 6.114196541895658e-07 -6.56326745403585e-07
rfoot -23.055544307546285 2.1689713772484353e-06 -16.379222224060996
rtoes -11.549751702522244 -6.977414349107327e-08 -1.008797850758368e-06
lowerback 16.249274460006916 1.2726145065351158 -0.9830418064832552
upperback -3.3615042804482207 1.916646703753958 1.6021034724267655
thorax -12.180028752526326 1.058611126181982 1.8294804698964902
lowerneck -11.457395592112624 -2.029057957114028 -1.9248847656666397
upperneck 23.5797988923852 -3.0151462414105206 2.3060364286666197
head 9.370881229926802 -1.331763944747426 0.7745436119620046
lclavicle -1.4085775951116125e-07 5.4855408257763046e-08 -1.0938974842598547e-06
lhumerus 30.8669738216487 7.8549361115681045 115.62948823281812
lradius 23.89364437719999 7.6462610808479e-07 1.706417966591331e-06
lwrist -4.2795294505502353e-07 -27.091528701316207 1.0319051402968245e-07
lhand -4.562975323145072 2.6246558075710764e-07 -26.656099019086014
lfingers 7.125022823272814 9.845282338726802e-08 3.18924141240953e-07
lthumb 21.213298854421275 -1.2803152392500461e-07 2.20318914769186
rclavicle 1.398304276268298e-07 4.3880174074018323e-07 -1.3740421654916584e-06
rhumerus 27.57578057573365 -1.631210216853069 -77.30288574309957
rradius 35.894669239505916 -9.804775812081182e-07 -4.830285291189437e-06
rwrist 3.1316916926700056e-07 34.82912216294349 7.000644611611988e-07
rhand -6.972260092956778 2.0321462048512455e-07 -36.68780446630613
rfingers 7.125022396385991 5.1024341088409163e-08 -3.1892353057445414e-07
rthumb 18.897492480477187 1.5447771905696147e-06 -65.78980959509936
